<?xml version="1.0" encoding="UTF-8" standalone="no"?>
<svg
   xmlns:dc="http://purl.org/dc/elements/1.1/"
   xmlns:cc="http://creativecommons.org/ns#"
   xmlns:rdf="http://www.w3.org/1999/02/22-rdf-syntax-ns#"
   xmlns:svg="http://www.w3.org/2000/svg"
   xmlns="http://www.w3.org/2000/svg"
   version="1.1"
   id="svg3446"
   height="50"
   width="50">
  <defs
     id="defs3448" />
  <metadata
     id="metadata3451">
    <rdf:RDF>
      <cc:Work
         rdf:about="">
        <dc:format>image/svg+xml</dc:format>
        <dc:type
           rdf:resource="http://purl.org/dc/dcmitype/StillImage" />
        <dc:title></dc:title>
      </cc:Work>
    </rdf:RDF>
  </metadata>
  <g
     transform="translate(0,-1002.3622)"
     id="layer1">
    <path
       transform="translate(0,1002.3622)"
       id="path3409"
       d="M 25 0 A 25.000003 25.000003 0 0 0 0 25 A 25.000003 25.000003 0 0 0 25 50 A 25.000003 25.000003 0 0 0 50 25 A 25.000003 25.000003 0 0 0 25 0 z M 27.640625 10 L 29.943359 10 L 22.386719 40 L 20.083984 40 L 27.640625 10 z M 18.324219 14.535156 L 18.324219 17.591797 L 7.4824219 25.205078 L 18.324219 31.935547 L 18.324219 35.035156 L 5 26.375 L 5 24.363281 L 18.324219 14.535156 z M 31.675781 14.535156 L 45 24.363281 L 45 26.375 L 31.675781 35.035156 L 31.675781 31.935547 L 42.53125 25.246094 L 31.675781 17.591797 L 31.675781 14.535156 z " />
  </g>
</svg>
